<svg width="500" height="500" viewBox="0 0 500 500" fill="none" xmlns="http://www.w3.org/2000/svg">
<path d="M33.0235 287V282.974C37.359 282.905 40.3526 282.355 42.0042 281.323C43.7246 280.29 44.5848 278.363 44.5848 275.542V220.316C44.5848 217.151 43.7246 214.88 42.0042 213.503C40.3526 212.127 37.359 211.37 33.0235 211.232V207.206C34.3999 207.275 35.8106 207.344 37.2558 207.413C38.7698 207.482 40.2838 207.516 41.7977 207.516C44.2063 207.516 46.4773 207.413 48.6106 207.206C50.8128 206.931 52.8085 206.553 54.5977 206.071V275.542C54.5977 278.363 55.458 280.29 57.1784 281.323C58.8988 282.355 61.8924 282.905 66.159 282.974V287C65.1268 286.931 63.6816 286.897 61.8235 286.897C60.0343 286.828 58.073 286.759 55.9397 286.69C53.8063 286.622 51.7074 286.587 49.6429 286.587C46.4773 286.587 43.3117 286.656 40.1461 286.794C36.9805 286.862 34.6063 286.931 33.0235 287ZM110.042 288.445C105.087 288.445 100.751 287.344 97.0353 285.142C93.388 282.871 90.5665 279.637 88.5708 275.439C86.5751 271.241 85.5773 266.286 85.5773 260.574C85.5773 254.794 86.5751 249.804 88.5708 245.606C90.5665 241.34 93.4568 238.071 97.2418 235.8C101.027 233.529 105.534 232.394 110.764 232.394C115.237 232.394 119.091 233.254 122.326 234.974C125.629 236.695 128.141 239.413 129.861 243.129C131.65 246.845 132.476 251.697 132.339 257.684H92.1837L92.0805 253.761H122.016C122.085 250.389 121.706 247.396 120.88 244.781C120.055 242.166 118.747 240.101 116.958 238.587C115.237 237.073 113.001 236.316 110.248 236.316C106.739 236.316 103.642 237.796 100.958 240.755C98.3428 243.714 96.7945 248.359 96.3127 254.69L96.416 255C96.3471 255.688 96.3127 256.445 96.3127 257.271C96.3127 258.097 96.3127 258.957 96.3127 259.852C96.3127 267.146 97.7235 272.789 100.545 276.781C103.367 280.703 107.427 282.665 112.726 282.665C116.167 282.665 119.229 281.839 121.913 280.187C124.665 278.467 126.936 275.817 128.726 272.239L132.339 274.303C130.549 278.776 127.693 282.252 123.771 284.729C119.917 287.206 115.341 288.445 110.042 288.445ZM188.241 287V282.974C189.962 282.905 191.132 282.665 191.751 282.252C192.439 281.77 192.715 281.151 192.577 280.394C192.508 279.637 192.13 278.88 191.441 278.123L164.396 243.852C163.158 242.338 161.953 241.168 160.783 240.342C159.682 239.516 158.444 238.931 157.067 238.587C155.76 238.243 154.143 238.002 152.216 237.865V233.839C153.798 233.908 155.829 234.011 158.306 234.148C160.852 234.217 163.261 234.252 165.532 234.252C166.977 234.252 168.422 234.217 169.867 234.148C171.312 234.08 172.758 234.011 174.203 233.942C175.717 233.873 177.093 233.839 178.332 233.839V237.865C176.68 237.933 175.51 238.209 174.822 238.69C174.134 239.103 173.824 239.688 173.893 240.445C174.031 241.133 174.444 241.89 175.132 242.716L202.074 276.884C203.656 278.811 205.411 280.256 207.338 281.219C209.334 282.183 211.502 282.768 213.841 282.974V287C212.465 286.931 210.538 286.862 208.061 286.794C205.652 286.656 203.347 286.587 201.145 286.587C198.874 286.587 196.534 286.656 194.125 286.794C191.786 286.862 189.824 286.931 188.241 287ZM151.287 287V282.974C153.42 282.837 155.347 282.424 157.067 281.735C158.788 281.047 160.508 280.015 162.229 278.639C163.949 277.194 165.773 275.37 167.7 273.168L179.674 259.129L182.358 261.71L174.925 270.174C173.411 272.101 172.379 273.822 171.829 275.335C171.347 276.849 171.312 278.157 171.725 279.258C172.138 280.359 172.93 281.254 174.1 281.942C175.269 282.561 176.749 282.905 178.538 282.974V287C177.162 286.862 175.235 286.794 172.758 286.794C170.349 286.725 167.7 286.69 164.809 286.69C163.295 286.69 161.781 286.725 160.267 286.794C158.822 286.794 157.343 286.828 155.829 286.897C154.383 286.897 152.869 286.931 151.287 287ZM186.28 260.471L183.493 257.89L191.338 248.29C192.921 246.295 193.85 244.54 194.125 243.026C194.401 241.443 194.056 240.204 193.093 239.31C192.198 238.415 190.616 237.933 188.345 237.865V233.839C189.859 233.908 191.235 233.976 192.474 234.045C193.781 234.045 195.054 234.08 196.293 234.148C197.532 234.148 198.839 234.148 200.216 234.148C202.28 234.148 204.241 234.114 206.1 234.045C207.958 233.976 209.781 233.908 211.57 233.839V237.865C209.85 238.002 208.198 238.415 206.616 239.103C205.033 239.723 203.45 240.686 201.867 241.994C200.353 243.301 198.736 245.022 197.016 247.155L186.28 260.471ZM257.413 288.445C252.665 288.445 248.398 287.482 244.613 285.555C240.897 283.559 237.938 280.497 235.735 276.368C233.533 272.239 232.432 266.94 232.432 260.471C232.432 253.933 233.533 248.6 235.735 244.471C237.938 240.342 240.931 237.314 244.716 235.387C248.501 233.391 252.733 232.394 257.413 232.394C262.161 232.394 266.394 233.391 270.11 235.387C273.895 237.314 276.888 240.342 279.09 244.471C281.292 248.6 282.394 253.933 282.394 260.471C282.394 266.94 281.292 272.239 279.09 276.368C276.888 280.497 273.895 283.559 270.11 285.555C266.394 287.482 262.161 288.445 257.413 288.445ZM257.413 284.419C261.542 284.419 264.948 282.527 267.632 278.742C270.316 274.957 271.658 268.867 271.658 260.471C271.658 252.075 270.316 245.951 267.632 242.097C264.948 238.243 261.542 236.316 257.413 236.316C253.215 236.316 249.774 238.243 247.09 242.097C244.475 245.951 243.168 252.075 243.168 260.471C243.168 268.867 244.475 274.957 247.09 278.742C249.774 282.527 253.215 284.419 257.413 284.419ZM303.434 287V282.974C307.839 282.905 310.867 282.355 312.518 281.323C314.17 280.222 314.996 278.295 314.996 275.542V246.948C314.996 243.645 314.101 241.34 312.312 240.032C310.591 238.725 307.632 238.002 303.434 237.865V233.839C304.88 233.908 306.325 233.976 307.77 234.045C309.215 234.114 310.695 234.148 312.209 234.148C316.819 234.148 321.086 233.667 325.009 232.703V275.026C325.009 277.916 326.075 279.946 328.209 281.116C330.342 282.286 334.058 282.905 339.357 282.974V287C338.118 286.931 336.432 286.897 334.299 286.897C332.166 286.828 329.86 286.759 327.383 286.69C324.905 286.622 322.497 286.587 320.157 286.587C316.785 286.587 313.55 286.656 310.454 286.794C307.357 286.862 305.017 286.931 303.434 287ZM344.518 250.561C343.004 250.561 341.8 250.148 340.905 249.323C340.011 248.428 339.563 247.327 339.563 246.019C339.563 245.125 339.735 244.333 340.08 243.645C340.424 242.888 340.768 242.2 341.112 241.581C341.456 240.892 341.628 240.239 341.628 239.619C341.628 238.243 340.561 237.555 338.428 237.555C336.776 237.555 335.021 237.968 333.163 238.794C331.305 239.619 329.619 240.755 328.105 242.2C326.591 243.576 325.421 245.159 324.596 246.948L324.389 242.613C326.247 239.378 328.621 236.867 331.512 235.077C334.471 233.288 337.568 232.394 340.802 232.394C343.968 232.394 346.514 233.323 348.441 235.181C350.368 236.97 351.331 239.378 351.331 242.406C351.331 244.815 350.677 246.776 349.37 248.29C348.131 249.804 346.514 250.561 344.518 250.561ZM386.206 288.445C381.526 288.445 377.81 287.241 375.057 284.832C372.374 282.355 371.032 279.052 371.032 274.923C371.032 271.688 371.789 269.073 373.303 267.077C374.817 265.082 376.778 263.499 379.186 262.329C381.664 261.159 384.245 260.196 386.928 259.439C389.681 258.613 392.262 257.89 394.67 257.271C397.148 256.652 399.143 255.895 400.657 255C402.24 254.037 403.032 252.798 403.032 251.284V246.329C403.032 243.095 402.068 240.652 400.141 239C398.214 237.348 395.359 236.523 391.574 236.523C388.821 236.523 386.515 236.901 384.657 237.658C382.799 238.415 381.87 239.344 381.87 240.445C381.87 241.133 382.111 241.856 382.593 242.613C383.075 243.301 383.522 244.092 383.935 244.987C384.417 245.813 384.657 246.742 384.657 247.774C384.657 249.082 384.141 250.148 383.109 250.974C382.146 251.8 380.872 252.213 379.29 252.213C377.432 252.213 375.918 251.628 374.748 250.458C373.578 249.219 372.993 247.602 372.993 245.606C372.993 243.06 373.956 240.789 375.883 238.794C377.81 236.798 380.391 235.249 383.625 234.148C386.928 232.978 390.645 232.394 394.774 232.394C399.04 232.394 402.515 233.047 405.199 234.355C407.883 235.662 409.845 237.692 411.083 240.445C412.391 243.198 413.045 246.776 413.045 251.181V278.432C413.045 280.084 413.32 281.288 413.87 282.045C414.421 282.802 415.281 283.181 416.451 283.181C417.621 283.181 418.791 282.905 419.961 282.355C421.131 281.735 422.266 281.013 423.367 280.187L425.328 283.49C423.539 285.073 421.647 286.277 419.651 287.103C417.724 287.998 415.488 288.445 412.941 288.445C406.335 288.445 403.032 285.417 403.032 279.361C401.036 282.32 398.627 284.591 395.806 286.174C392.984 287.688 389.784 288.445 386.206 288.445ZM390.128 282.148C392.675 282.148 395.049 281.529 397.251 280.29C399.453 279.052 401.38 277.262 403.032 274.923V256.548C402.343 257.718 401.139 258.682 399.419 259.439C397.767 260.127 395.909 260.849 393.845 261.606C391.78 262.295 389.784 263.12 387.857 264.084C385.999 265.047 384.451 266.286 383.212 267.8C381.974 269.314 381.354 271.275 381.354 273.684C381.354 276.299 382.111 278.363 383.625 279.877C385.208 281.391 387.376 282.148 390.128 282.148ZM452.454 288.445C450.114 288.445 448.187 287.723 446.673 286.277C445.159 284.832 444.402 282.974 444.402 280.703C444.402 278.501 445.159 276.677 446.673 275.232C448.187 273.787 450.114 273.065 452.454 273.065C454.794 273.065 456.721 273.787 458.235 275.232C459.748 276.677 460.505 278.501 460.505 280.703C460.505 282.974 459.748 284.832 458.235 286.277C456.721 287.723 454.794 288.445 452.454 288.445Z" fill="black"/>
</svg>
